<!DOCTYPE svg PUBLIC "-//W3C//DTD SVG 1.1//EN" "http://www.w3.org/Graphics/SVG/1.1/DTD/svg11.dtd">
<!-- Uploaded to: SVG Repo, www.svgrepo.com, Transformed by: SVG Repo Mixer Tools -->
<svg width="193px" height="193px" viewBox="-9.6 -9.6 35.20 35.20" xmlns="http://www.w3.org/2000/svg" fill="none" transform="matrix(1, 0, 0, 1, 0, 0)rotate(0)">
<g id="SVGRepo_bgCarrier" stroke-width="0" transform="translate(0,0), scale(1)">
<rect x="-9.6" y="-9.6" width="35.20" height="35.20" rx="17.6" fill="#ffff00" strokewidth="0"/>
</g>
<g id="SVGRepo_tracerCarrier" stroke-linecap="round" stroke-linejoin="round" stroke="#CCCCCC" stroke-width="0.032"/>
<g id="SVGRepo_iconCarrier">
<path fill="#ff8000" fill-rule="evenodd" d="M8 1a2.143 2.143 0 00-1.827 1.024l-5.88 9.768a2.125 2.125 0 00.762 2.915c.322.188.687.289 1.06.293h11.77a2.143 2.143 0 001.834-1.074 2.126 2.126 0 00-.006-2.124L9.829 2.028A2.149 2.149 0 008 1zM7 11a1 1 0 011-1h.007a1 1 0 110 2H8a1 1 0 01-1-1zm1.75-5.25a.75.75 0 00-1.5 0v2.5a.75.75 0 001.5 0v-2.5z" clip-rule="evenodd"/>
</g>
</svg>