<!DOCTYPE svg PUBLIC "-//W3C//DTD SVG 1.1//EN" "http://www.w3.org/Graphics/SVG/1.1/DTD/svg11.dtd">
<!-- Uploaded to: SVG Repo, www.svgrepo.com, Transformed by: SVG Repo Mixer Tools -->
<svg fill="#000000" width="64px" height="64px" viewBox="-220.16 -220.16 952.32 952.32" version="1.1" xml:space="preserve" xmlns="http://www.w3.org/2000/svg" xmlns:xlink="http://www.w3.org/1999/xlink">
<g id="SVGRepo_bgCarrier" stroke-width="0">
<rect x="-220.16" y="-220.16" width="952.32" height="952.32" rx="95.23200000000001" fill="#c0c0c0" strokewidth="0"/>
</g>
<g id="SVGRepo_tracerCarrier" stroke-linecap="round" stroke-linejoin="round"/>
<g id="SVGRepo_iconCarrier"> <g id="A_-_88_x2C__check_list_x2C__to_do_list_x2C__work_task_x2C__notepad"> <g> <path d="M394.28,91.615v-21.14H112.498V435.24H152.8h219.098l-0.477-15.472l-0.004-0.113v-0.001 c-0.026-0.87,0.294-1.716,0.892-2.351c0.085-0.089,0.183-0.161,0.274-0.239c0.072-0.061,0.138-0.13,0.213-0.184 c0.033-0.023,0.069-0.038,0.102-0.059c0.146-0.097,0.295-0.189,0.455-0.261c0.035-0.017,0.074-0.022,0.11-0.037 c0.161-0.065,0.325-0.127,0.496-0.167c0.068-0.016,0.142-0.016,0.213-0.027c0.142-0.022,0.282-0.05,0.427-0.055l19.681-0.588 V91.615z M198.812,132.111h89.015c1.813,0,3.28,1.468,3.28,3.28c0,1.811-1.468,3.28-3.28,3.28h-89.015 c-1.811,0-3.28-1.469-3.28-3.28C195.532,133.579,197,132.111,198.812,132.111z M135.517,141.776 c1.469-1.06,3.519-0.728,4.578,0.742l6.226,8.634l28.113-18.596c1.513-1.001,3.547-0.584,4.544,0.925 c1,1.511,0.585,3.546-0.925,4.545l-30.741,20.334c-0.557,0.368-1.185,0.544-1.807,0.544c-1.021,0-2.024-0.475-2.663-1.362 l-8.067-11.19C133.714,144.885,134.047,142.835,135.517,141.776z M178.052,357.305l-30.74,20.328 c-0.557,0.368-1.185,0.546-1.807,0.546c-1.021,0-2.023-0.477-2.663-1.362l-8.067-11.185c-1.06-1.47-0.728-3.52,0.741-4.579 s3.519-0.729,4.578,0.741l6.226,8.632l28.114-18.592c1.512-1.001,3.546-0.584,4.545,0.926 C179.978,354.271,179.563,356.305,178.052,357.305z M135.504,306.289c1.464-1.066,3.517-0.743,4.582,0.724l6.227,8.558 l28.126-18.513c1.513-0.996,3.546-0.577,4.543,0.937c0.996,1.513,0.577,3.548-0.936,4.543l-30.741,20.233 c-0.555,0.365-1.181,0.541-1.8,0.541c-1.017,0-2.015-0.471-2.655-1.351l-8.068-11.091 C133.716,309.406,134.04,307.354,135.504,306.289z M178.052,247.665l-30.74,20.33c-0.557,0.367-1.185,0.545-1.807,0.545 c-1.021,0-2.023-0.475-2.663-1.361l-8.067-11.186c-1.06-1.469-0.728-3.519,0.741-4.579c1.469-1.06,3.519-0.728,4.578,0.742 l6.226,8.631l28.114-18.594c1.512-1,3.546-0.583,4.545,0.927C179.978,244.631,179.563,246.666,178.052,247.665z M178.052,192.799 l-30.74,20.33c-0.557,0.367-1.185,0.544-1.807,0.544c-1.021,0-2.023-0.475-2.663-1.362l-8.067-11.185 c-1.06-1.469-0.728-3.519,0.741-4.579s3.519-0.729,4.578,0.741l6.226,8.631l28.114-18.593c1.512-1,3.546-0.585,4.545,0.926 C179.978,189.765,179.563,191.8,178.052,192.799z M354.271,378.083h-155.46c-1.811,0-3.28-1.469-3.28-3.279 c0-1.813,1.469-3.28,3.28-3.28h155.46c1.811,0,3.279,1.468,3.279,3.28C357.551,376.614,356.082,378.083,354.271,378.083z M195.532,354.663c0-1.812,1.469-3.279,3.28-3.279h89.015c1.813,0,3.28,1.468,3.28,3.279c0,1.813-1.468,3.28-3.28,3.28h-89.015 C197,357.943,195.532,356.476,195.532,354.663z M354.271,323.217h-155.46c-1.811,0-3.28-1.469-3.28-3.28 c0-1.811,1.469-3.279,3.28-3.279h155.46c1.811,0,3.279,1.469,3.279,3.279C357.551,321.748,356.082,323.217,354.271,323.217z M195.532,299.892c0-1.812,1.469-3.28,3.28-3.28h89.015c1.813,0,3.28,1.469,3.28,3.28s-1.468,3.28-3.28,3.28h-89.015 C197,303.172,195.532,301.703,195.532,299.892z M354.271,268.445h-155.46c-1.811,0-3.28-1.469-3.28-3.28s1.469-3.28,3.28-3.28 h155.46c1.811,0,3.279,1.469,3.279,3.28S356.082,268.445,354.271,268.445z M195.532,245.025c0-1.812,1.469-3.28,3.28-3.28h89.015 c1.813,0,3.28,1.468,3.28,3.28c0,1.811-1.468,3.28-3.28,3.28h-89.015C197,248.305,195.532,246.836,195.532,245.025z M354.271,213.578h-155.46c-1.811,0-3.28-1.469-3.28-3.28c0-1.812,1.469-3.28,3.28-3.28h155.46c1.811,0,3.279,1.468,3.279,3.28 C357.551,212.109,356.082,213.578,354.271,213.578z M195.532,190.158c0-1.811,1.469-3.28,3.28-3.28h89.015 c1.813,0,3.28,1.469,3.28,3.28c0,1.812-1.468,3.28-3.28,3.28h-89.015C197,193.438,195.532,191.97,195.532,190.158z M354.271,158.71h-155.46c-1.811,0-3.28-1.468-3.28-3.28c0-1.811,1.469-3.28,3.28-3.28h155.46c1.811,0,3.279,1.469,3.279,3.28 C357.551,157.243,356.082,158.71,354.271,158.71z"/> <path d="M378.553,438.065c0.02,0.148,0.031,0.3,0.031,0.454c0,0.057-0.015,0.11-0.018,0.167l0.836,27.167l44.443-44.44 l-45.769,1.324L378.553,438.065z"/> <polygon points="400.84,94.895 400.84,415.516 428.723,414.71 428.723,94.895 "/> <polygon points="156.08,441.8 156.08,471.528 373.014,471.528 372.1,441.8 "/> <path d="M173.594,43.752c0-1.812-1.469-3.28-3.28-3.28H86.558c-1.811,0-3.28,1.468-3.28,3.28v127.438 c0,1.811,1.469,3.28,3.28,3.28c1.812,0,3.28-1.469,3.28-3.28V47.032h80.477C172.125,47.032,173.594,45.563,173.594,43.752z"/> </g> </g> <g id="Layer_1"/> </g>
</svg>